<svg width="519" height="610" viewBox="0 0 519 610" fill="none" xmlns="http://www.w3.org/2000/svg">
<path fill-rule="evenodd" clip-rule="evenodd" d="M274.235 0.0996936C331.952 -2.21353 384.237 36.106 426.208 75.7931C463.832 111.37 480.635 161.426 496.85 210.602C511.516 255.081 524.925 301.072 515.626 346.974C506.594 391.56 469.777 422.342 446.089 461.179C416.679 509.396 411.308 580.226 359.557 602.846C308.352 625.228 251.995 586.309 198.769 569.28C146.888 552.68 87.1317 546.455 52.3297 504.549C17.695 462.845 23.4988 403.084 16.1419 349.375C8.83825 296.055 -12.0272 240.69 9.42641 191.333C30.9811 141.743 86.0584 119.326 129.895 87.6689C176.461 54.041 216.842 2.39994 274.235 0.0996936Z" fill="#005EED"/>
</svg>
